<svg width="754" height="667" viewBox="0 0 754 667" fill="none" xmlns="http://www.w3.org/2000/svg">
<path d="M18.7762 308.534C19.7084 308.749 20.6426 308.741 21.5788 308.51L23.223 309.19C23.3049 309.226 23.3907 309.239 23.4804 309.231C31.1687 308.727 38.861 308.565 46.5571 308.745C50.9337 308.844 57.013 307.813 60.746 308.422C62.158 308.649 63.3068 308.614 64.1923 308.317C64.3034 308.28 64.4011 308.211 64.473 308.12C64.5448 308.028 64.5877 307.917 64.596 307.801C64.6545 306.828 64.3249 306.005 63.6072 305.332C63.5481 305.277 63.501 305.21 63.4688 305.137C63.4366 305.063 63.42 304.984 63.4199 304.904C63.4199 302.63 63.9114 298.021 63.0572 295.869C61.8167 292.762 63.7827 291.478 63.4141 288.582C62.5072 281.499 66.3981 273.144 70.2774 266.988C77.9131 254.892 87.7078 245.025 102.025 241.431C102.119 241.408 102.206 241.361 102.277 241.296C102.349 241.231 102.403 241.15 102.436 241.059C102.468 240.968 102.478 240.87 102.463 240.774C102.449 240.678 102.411 240.588 102.353 240.51C100.988 238.693 99.369 237.141 97.4966 235.855C97.4334 235.812 97.3792 235.757 97.337 235.693C97.2949 235.628 97.2656 235.556 97.2509 235.48C96.7906 233.095 95.8057 231.002 94.2961 229.2C92.9152 227.553 92.611 226.081 91.8855 224.205C91.0897 222.165 89.4924 220.054 88.7727 217.621C87.5966 213.61 86.795 209.788 86.7365 205.49C86.6312 197.047 86.8652 187.285 90.4285 179.816C93.7929 172.774 99.3807 163.376 106.42 158.421C111.58 154.792 116.536 152.277 122.867 150.535C126.173 149.627 129.543 148.507 132.796 148.114C135.788 147.754 138.792 147.627 141.807 147.733C147.009 147.915 143.153 140.293 141.713 138.405C141.644 138.313 141.604 138.203 141.596 138.088C141.339 134.125 140.619 130.003 140.643 126.309C140.713 117.321 141.713 107.858 146.195 99.814C151.233 90.779 157.055 84.6169 165.82 78.5076C170.044 75.5584 175.72 73.993 180.57 72.322C180.648 72.2962 180.718 72.2541 180.778 72.1985C180.838 72.1428 180.884 72.075 180.916 71.9996C181.471 70.6921 199.879 71.5071 202.676 71.765C205.824 72.0523 208.603 73.4184 211.733 74.1572C214.196 74.7435 216.086 76.5786 218.181 77.5988C218.273 77.6431 218.376 77.6624 218.478 77.6548C218.58 77.6472 218.678 77.6129 218.763 77.5553C218.847 77.4978 218.915 77.419 218.96 77.3268C219.005 77.2347 219.025 77.1323 219.018 77.0301C218.403 68.0068 219.773 59.5522 223.511 51.385C225.431 47.187 226.858 43.0887 230.316 39.5064C233.552 36.1586 236.934 32.2127 240.216 29.5685C251.895 20.1582 267.389 18.2175 281.876 20.3224C286.779 21.0377 293.859 23.3243 297.651 25.1418C303.794 28.0792 308.75 32.5352 313.384 37.4367C313.981 38.0641 314.864 38.6445 315.473 39.1135C315.544 39.1692 315.627 39.2075 315.716 39.2256C315.804 39.2436 315.896 39.2409 315.983 39.2176C316.07 39.1943 316.151 39.1511 316.219 39.0914C316.287 39.0316 316.34 38.9569 316.374 38.8732C318.223 34.3977 320.191 29.9769 322.278 25.6109C322.804 24.5203 323.881 23.8989 324.571 22.9256C328.117 17.9713 332.541 12.6769 337.842 9.41119C342.435 6.57933 346.361 3.68297 351.697 2.35205C356.144 1.24393 361.31 0.505178 365.517 0.0478575C367.951 -0.215981 370.356 0.692797 372.644 0.786607C376.576 0.942955 380.326 1.51754 383.895 2.51035C390.027 4.22237 394.562 7.94543 399.693 11.4926C408.06 17.2736 414.005 26.1444 417.176 35.7833C417.204 35.866 417.25 35.9415 417.311 36.0043C417.371 36.0672 417.446 36.1159 417.528 36.1468C418.417 36.4791 419.263 36.2602 420.067 35.4902C431.882 24.1549 446.091 18.2469 462.692 17.7661C465.664 17.684 468.941 18.7511 472.288 19.2905C481.527 20.768 489.759 25.0187 496.687 31.5443C501.251 35.8361 507.266 42.3382 508.723 48.3772C508.753 48.4991 508.823 48.6098 508.921 48.6938C510.587 50.0541 511.196 51.813 510.747 53.9706C510.731 54.0518 510.732 54.1361 510.751 54.218C510.77 54.2999 510.807 54.3774 510.858 54.4455C514.351 59.0422 514.89 64.8056 515.358 70.352C515.408 70.9657 515.299 71.724 515.03 72.6269C514.765 73.5181 514.659 74.4288 514.714 75.3591C514.72 75.4495 514.746 75.5374 514.792 75.6158C514.837 75.6942 514.9 75.761 514.975 75.811C515.05 75.861 515.136 75.8928 515.226 75.9039C515.316 75.915 515.407 75.9051 515.492 75.875C516.807 75.4177 518.063 74.8666 519.26 74.2217C525.503 70.8738 536.234 68.2941 543.25 69.3436C548.639 70.1468 554.987 70.8269 559.41 72.3631C566.133 74.6907 575.998 80.4365 580.229 85.9713C583.193 89.8448 586.043 93.8004 588.777 97.8381C589.415 98.7762 590.105 100.4 590.462 101.708C592.658 109.764 593.877 114.554 594.119 116.078C594.615 119.24 594.605 124.224 594.09 131.029C593.688 136.357 592.284 141.266 589.877 145.757C589.542 146.382 589.727 146.67 590.433 146.619C592.871 146.451 595.264 146.363 597.612 146.355C606.845 146.32 615.083 148.29 622.327 152.265C623.451 152.883 626.417 154.806 631.227 158.034C633.198 159.359 633.708 161.406 635.521 162.625C639.851 165.545 641.706 168.805 643.748 173.349C648.563 184.072 651.448 194.626 649.441 206.499C648.745 210.626 648.347 214.824 646.861 218.647C644.889 223.689 642.619 228.444 639.266 232.806C637.78 234.745 636.243 236.629 634.655 238.458C634.597 238.525 634.554 238.604 634.53 238.69C634.506 238.776 634.502 238.866 634.519 238.954C634.535 239.042 634.571 239.124 634.624 239.196C634.677 239.268 634.746 239.326 634.825 239.367C636.627 240.297 638.509 240.979 640.471 241.413C644.866 242.381 648.013 243.407 651.109 246.321C654.604 249.608 658.192 252.793 661.875 255.877C667.252 260.38 669.996 267.082 673.226 273.132C673.639 273.902 673.904 274.786 674.021 275.783C674.31 278.245 674.938 280.616 675.906 282.894C676.374 284.001 676.645 285.025 676.719 285.967C677.029 289.995 677.245 293.7 676.485 297.699C676.262 298.883 676.106 300.198 676.017 301.645C675.9 303.497 675.435 305.473 674.624 307.572C674.597 307.645 674.584 307.723 674.586 307.801C674.589 307.879 674.607 307.956 674.639 308.027C674.671 308.098 674.717 308.161 674.773 308.214C674.83 308.267 674.897 308.308 674.969 308.334C677.204 309.159 679.469 309.855 681.762 310.422C685.32 311.297 687.695 311.942 688.889 312.356C694.951 314.452 700.806 317.01 706.454 320.031C714.675 324.423 722.094 330.813 728.811 337.304C730.642 339.08 731.345 341.514 732.287 343.736C732.339 343.86 732.435 343.962 732.556 344.023C734.682 345.129 736.332 346.683 737.506 348.684C740.033 352.995 742.417 357.387 744.656 361.858C745.446 363.441 747.265 364.972 747.652 367C748.137 369.574 748.722 371.579 749.179 374.593C749.471 376.528 750.618 378.316 751.051 379.794C752.065 383.241 752.453 386.769 752.215 390.376C752.081 392.417 753.04 393.589 753.181 395.466C753.637 401.591 753.819 405.74 753.725 407.913C753.579 411.36 752.151 415.124 751.958 418.824C751.42 429.032 746.13 440.617 741.104 449.388C740.291 450.807 739.583 453.416 738.682 454.425C735.423 458.083 732.199 461.267 730.321 465.922C730.283 466.022 730.215 466.109 730.128 466.174C728.764 467.177 727.266 468.015 726.038 469.17C714.774 479.753 702.118 487.85 687.403 492.218C679.217 494.645 669.592 495.431 660.821 496.094C656.749 496.398 651.998 495.812 647.463 496.387C646.133 496.551 642.987 496.662 638.026 496.721C633.479 496.774 627.242 496.164 621.795 496.217C615.364 496.281 609.355 496.094 603.141 496.135C600.087 496.152 594.265 495.636 589.748 496.199C588.075 496.406 586.561 496.465 585.208 496.375C575.292 495.718 565.386 495.896 555.49 496.909C552.752 497.19 549.282 496.099 546.702 496.094C544.572 496.086 542.452 496.266 540.342 496.633C540.206 496.656 540.067 496.631 539.95 496.563C538.998 496.019 537.877 495.81 536.585 495.935C531.84 496.387 527.276 497.161 522.356 496.486C520.015 496.164 517.856 496.78 515.428 496.363C514.047 496.129 512.951 496.041 512.14 496.099C507.564 496.445 502.38 497.137 497.126 496.293C495.335 496.006 492.977 496.821 490.883 496.574C489.221 496.381 487.863 496.076 486.149 496.293C482.915 496.703 479.682 496.74 476.448 496.404C475.722 496.33 474.872 496.393 473.897 496.592C472.118 496.955 470.351 496.809 468.596 496.152C468.498 496.117 468.397 496.107 468.292 496.123C462.212 497.126 456.841 495.771 451.177 496.516C448.127 496.918 445.067 496.971 441.997 496.674C441.893 496.663 441.795 496.626 441.71 496.569C441.3 496.271 440.672 496.117 439.826 496.105C432.5 496.008 426.683 495.963 422.372 495.97C391.016 496.006 357.209 495.226 322.728 496.082C309.786 496.404 296.907 495.918 283.947 496.504C278.804 496.733 274.264 495.677 268.986 496.469C267.594 496.676 265.895 496.856 263.89 497.008C257.407 497.501 249.239 500.978 246.202 507.28C245.143 509.473 244.61 512.27 243.949 514.785C241.55 523.867 248.232 532.169 255.236 536.69C257.237 537.979 260.701 537.716 263.03 537.839C263.907 537.886 264.884 538.648 265.423 538.66C269.971 538.746 274.517 538.878 279.062 539.058C281.314 539.146 283.982 538.489 286.598 538.976C287.608 539.164 288.513 539.209 289.313 539.111C295.954 538.302 303.221 539.263 309.458 539.123C326.922 538.732 349.788 538.65 378.056 538.876C383.018 538.912 386.991 539.316 391.233 538.994C393.649 538.806 395.978 539.346 398.237 539.123C403.76 538.583 407.528 538.566 412.876 539.586C412.983 539.605 413.09 539.597 413.186 539.562C415.928 538.562 418.628 538.652 421.284 539.832C421.398 539.882 421.525 539.896 421.647 539.873C425.774 538.974 429.916 538.771 434.074 539.263C436.69 539.568 440.768 538.935 443.834 539.011C465.74 539.557 486.12 538.835 506.54 539.398C508.676 539.457 511.051 539.017 513.362 539.093C521.466 539.34 529.547 538.97 537.644 539.334C545.163 539.68 551.465 539.351 562.547 539.551C565.086 539.592 568.076 538.859 570.914 539.023C578.871 539.48 586.858 539.287 594.839 539.703C597.355 539.832 600.397 539.123 603.282 539.293C611.68 539.797 620.08 539.742 628.482 539.129C630.917 538.949 634.864 539.174 640.325 539.803C641.456 539.932 642.625 539.885 643.83 539.662C648.224 538.847 652.197 539.598 656.421 539.58C678.414 539.482 700.406 539.58 722.398 539.873C723.221 539.885 725.162 539.789 728.22 539.586C731.151 539.392 734.364 539.838 736.886 539.815C742.163 539.768 748.278 539.134 753.462 539.903C753.6 539.924 753.727 539.994 753.818 540.1C753.909 540.207 753.959 540.343 753.959 540.483L754 550.685C754.004 551.556 753.563 551.992 752.678 551.992C724.374 552 696.176 552.002 668.083 551.998C663.683 551.998 659.119 551.365 654.66 551.693C644.854 552.426 635.083 551.511 625.264 551.875C625.023 551.887 623.466 551.853 620.595 551.775C617.43 551.693 614.352 552.227 610.806 551.857C609.008 551.67 607.335 551.629 605.786 551.734C597.495 552.297 588.338 551.564 581.118 551.617C574.967 551.656 568.813 551.685 562.658 551.705C554.654 551.722 545.116 550.984 537.206 551.277C525.012 551.728 514.375 551.306 503.813 551.629C500.221 551.734 496.857 551.418 493.2 551.863C490.625 552.174 487.975 551.517 485.763 551.541C479.881 551.603 474 551.597 468.122 551.523C459.176 551.418 449.627 552.022 440.329 551.717C418.177 550.995 399.407 551.945 380.262 551.289C372.404 551.019 363.54 551.576 356.7 551.523C337.953 551.386 319.206 551.357 300.459 551.435C297.984 551.447 293.426 550.884 289.921 551.183C281.016 551.945 271.789 551.588 262.842 551.617C262.739 551.617 262.636 551.589 262.544 551.535C260.504 550.315 259.012 549.686 258.068 549.647C253.648 549.475 249.824 547.978 246.594 545.156C244.54 543.356 241.205 542.113 239.842 540.407C234.295 533.453 232.376 525.649 231.112 517.218C230.808 515.201 231.756 513.014 231.972 511.408C232.241 509.391 232.341 507.544 233.324 505.697C237.004 498.826 239.461 493.666 246.079 490.26C250.754 487.856 254.774 485.546 260.461 484.731C263.123 484.35 266.394 484.514 269.39 484.209C273.778 483.764 277.698 483.605 281.829 484.08C285.051 484.451 288.652 484.321 292.63 483.687C294.261 483.425 296.118 483.57 298.201 484.121C300.044 484.608 301.296 484.285 303.01 483.805C303.11 483.778 303.215 483.778 303.314 483.805C303.954 483.973 304.586 484.147 305.21 484.326C308.317 485.223 310.546 482.005 313.788 484.438C313.849 484.484 313.919 484.518 313.993 484.537C314.067 484.556 314.145 484.56 314.221 484.549C319.048 483.875 324.092 484.403 328.468 484.098C331.335 483.898 334.109 483.64 337.058 483.722C342.751 483.881 348.766 483.517 354.073 483.67C362.529 483.92 369.5 484.033 374.984 484.01C378.284 483.992 382.363 483.541 385.961 483.582C393.877 483.676 401.718 483.775 409.634 483.465C414.134 483.294 418.083 484.279 422.934 483.898C432.512 483.154 442.617 483.787 452.254 483.857C454.436 483.875 456.742 484.643 458.871 484.297C462.238 483.754 465.432 483.504 468.455 483.547C477.466 483.676 484.989 483.722 491.023 483.687C493.843 483.676 497.43 484.367 499.612 484.262C508.693 483.82 517.778 483.689 526.867 483.869C529.535 483.922 533.291 484.702 535.597 484.455C542.247 483.74 547.269 483.597 550.663 484.027C554.15 484.473 556.296 484.561 557.099 484.291C558.796 483.717 559.923 483.504 560.481 483.652C564.431 484.707 568.041 484.133 571.838 484.285C575.437 484.432 579.339 483.851 582.487 483.898C584.915 483.928 586.922 484.039 589.585 483.793C593.493 483.429 597.127 484.672 601 484.426C606.321 484.086 611.643 483.982 616.968 484.115C623.649 484.285 630.753 483.805 637.698 484.291C639.43 484.412 644.325 484.319 652.384 484.01C653.274 483.975 654.397 484.065 655.754 484.279C659.628 484.883 663.963 483.599 668.007 483.547C674.092 483.465 680.417 482.503 685.718 479.906C688.766 478.411 692.575 477.883 694.746 476.816C700.152 474.154 707.653 469.188 712.937 464.41C716.003 461.642 719.016 459.092 721.597 455.89C728.712 447.078 734.592 438.108 738.179 427.361C740.01 421.89 741.034 415.177 742.222 409.074C743.45 402.753 741.438 398.227 741.689 392.54C742.099 383.394 737.219 375.267 734.884 366.602C734.85 366.48 734.778 366.373 734.68 366.297C732.53 364.573 731.413 362.322 731.327 359.543C731.323 359.453 731.299 359.365 731.257 359.286C731.214 359.207 731.154 359.138 731.081 359.085C729.654 358.053 728.571 357.303 727.717 355.638C725.599 351.487 721.796 348.971 719.087 345.178C712.451 335.903 701.112 331.206 690.966 326.223C687.896 324.718 684.316 323.576 680.224 322.799C679.053 322.58 678.065 321.905 677.257 320.776C677.197 320.691 677.115 320.623 677.02 320.58C676.926 320.536 676.822 320.519 676.719 320.53C672.172 321.005 667.293 320.489 663.302 320.436C660.108 320.395 657.106 319.984 653.864 320.401C652.14 320.623 650.313 320.532 648.382 320.125C644.158 319.228 638.494 319.932 635.475 319.937C617.804 319.949 600.134 320.059 582.464 320.266C580.621 320.289 578.783 320.131 576.929 320.014C574.922 319.891 572.16 320.735 570.703 320.418C568.328 319.898 565.993 319.973 563.699 320.641C561.962 321.139 561.663 320.148 560.195 320.143C546.581 320.061 532.969 320.08 519.36 320.201C515.99 320.231 513.064 320.049 509.425 320.377C506.487 320.635 502.696 320.313 500.683 320.301C485.716 320.184 470.751 320.168 455.788 320.254C453.915 320.26 451.961 320.694 450.077 320.547C447.425 320.344 444.782 320.41 442.149 320.747C440.803 320.919 439.52 320.938 438.299 320.805C431.125 320.025 423.344 320.799 417.165 320.776C406.504 320.733 395.841 320.616 385.177 320.424C382.883 320.383 380.256 320.788 377.764 320.741C363.054 320.494 348.346 320.471 333.641 320.67C331.739 320.7 329.252 320.219 327.591 320.401C320.6 321.155 315.139 321.399 311.207 321.133C300.477 320.412 289.95 321.456 279.173 320.547C277.698 320.424 275.914 320.823 274.486 320.84C259.749 321.044 245.01 321.141 230.269 321.133C226.267 321.133 222.172 320.442 218.228 320.958C215.039 321.368 211.71 320.647 208.901 320.705C204.154 320.803 199.409 320.817 194.666 320.747C193.511 320.727 191.859 321.018 189.71 321.62C189.595 321.654 189.475 321.652 189.365 321.614L184.935 320.107C184.793 320.059 184.635 320.069 184.496 320.137C183.556 320.586 182.739 320.815 182.045 320.823C166.637 321.01 151.229 321.126 135.821 321.169C133.03 321.175 130.111 320.447 127.396 320.875C125.828 321.126 124.782 321.225 124.259 321.175C117.734 320.545 111.204 320.43 104.67 320.829C97.0578 321.292 88.6791 320.694 82.4301 321.022C73.3083 321.497 65.5965 320.576 57.2119 320.958C50.7055 321.251 43.7486 320.823 37.7863 320.946C35.5103 320.993 29.1735 321.591 27.3831 320.664C27.2915 320.615 27.1859 320.592 27.0788 320.6C23.9349 320.815 20.7831 320.883 17.6235 320.805C16.699 320.782 16.1198 320.301 15.0315 320.406C10.2453 320.872 5.44349 320.995 0.626094 320.776C0.476039 320.768 0.334623 320.703 0.231144 320.594C0.127664 320.485 0.07005 320.34 0.0702379 320.19L2.77304e-05 309.847C-0.00387299 308.971 0.40375 308.534 1.2229 308.534H18.7762ZM366.266 257.337L372.626 255.678C372.737 255.649 372.837 255.587 372.913 255.5C372.989 255.414 373.038 255.306 373.053 255.191C373.428 252.547 373.527 249.833 374.025 247.288C375.523 239.596 376.882 231.882 378.103 224.146C378.46 221.895 379.77 219.104 380.104 216.401C380.744 211.214 381.28 207.333 381.713 204.757C382.006 203.028 382.901 201.093 383.123 199.24C384.405 188.71 386.236 178.549 388.629 168.219C389.694 163.614 390.306 158.939 390.466 154.194C390.537 152.101 391.876 148.478 392.315 145.951C393.279 140.439 394.326 134.942 395.457 129.458C395.477 129.356 395.52 129.266 395.586 129.188C397.388 127.118 395.387 125.576 395.855 124.122C397.049 120.452 397.72 116.698 397.868 112.859C397.921 111.388 398.751 110.215 399.448 108.99C399.501 108.898 399.528 108.794 399.524 108.691C399.459 102.663 401.829 97.6388 402.204 92.7666C402.631 87.2436 402.789 84.74 404.801 80.4717C404.847 80.3721 404.866 80.2626 404.854 80.1551C404.69 78.5897 404.181 77.417 404.602 75.8281C405.328 73.1018 406.229 70.6569 406.171 67.655C406.147 66.5997 406.27 65.5775 406.539 64.5886C407.557 60.8089 408.199 56.9666 408.464 53.0618C408.634 50.5524 407.645 47.9668 407.388 45.387C407.193 43.4483 406.927 41.9591 406.592 40.9194C403.081 30.1254 395.557 22.6324 386.189 16.1655C384.44 14.9577 382.105 14.9401 380.198 14.0313C378.832 13.3825 377.442 12.7766 376.026 12.2137C375.915 12.1718 375.793 12.1636 375.675 12.1903C372.685 12.8821 369.718 11.9616 367.512 11.8971C353.189 11.4926 340.264 19.9882 332.64 31.7026C331.4 33.6081 330.44 36.1117 329.416 38.2869C327.503 42.3265 325.981 47.6091 325.829 51.4377C325.636 56.4565 327.901 60.5314 328.322 65.5209C328.638 69.2674 329.995 72.451 330.054 76.35C330.136 81.4391 332.494 86.6103 333.014 91.7464C333.159 93.1692 333.414 94.5861 333.781 95.9971C334.639 99.2961 335.012 102.665 334.899 106.105C334.875 106.852 335.402 108.026 336.478 109.629C336.536 109.721 336.57 109.824 336.578 109.928C336.794 114.566 338.269 119.918 338.848 123.354C339.492 127.181 340.213 130.992 341.013 134.787C341.785 138.452 342.136 142.122 342.634 145.81C343.412 151.52 345.191 157.26 346.571 162.989C347.461 166.694 347.443 170.804 348.496 174.773C349.286 177.769 349.386 180.801 350.012 183.468C351.223 188.64 351.931 193.963 353.423 199.047C353.887 200.622 354.156 202.523 354.231 204.751C354.324 207.444 355.11 210.956 356.589 215.287C358.145 219.855 357.963 224.938 359.397 229.511C360.509 233.076 360.316 236.529 361.65 240.17C361.919 240.901 362.085 241.745 362.147 242.703C362.282 244.749 363.3 247.282 363.586 248.795C364.109 251.539 364.766 254.253 365.558 256.939C365.6 257.085 365.698 257.209 365.831 257.283C365.963 257.358 366.12 257.377 366.266 257.337ZM385.382 259.149C387.484 260.329 389.706 260.8 392.046 260.562C392.125 260.555 392.203 260.53 392.273 260.491C392.344 260.452 392.406 260.398 392.456 260.333C395.085 256.898 396.627 254.785 397.084 253.995C403.384 243.055 410.075 232.361 417.159 221.913C420.822 216.513 423.929 210.996 427.246 205.473C429.382 201.925 432.53 197.903 434.853 193.846C437.529 189.175 439.058 186.535 439.44 185.925C447.947 172.338 456.34 158.675 464.617 144.936C465.861 142.869 467.675 140.142 470.059 136.757C473.62 131.707 476.783 126.417 479.549 120.886C480.091 119.803 480.836 118.662 481.784 117.462C483.774 114.935 485.921 110.854 486.968 109.254C490.693 103.547 494.407 97.8323 498.109 92.1099C500.794 87.953 502.111 82.1075 503.521 77.0887C504.229 74.5734 502.696 71.3312 503.123 69.3201C503.802 66.158 503.556 63.1268 502.386 60.2265C500.478 55.5048 498.2 50.527 495.552 45.2932C495.488 45.1616 495.375 45.0588 495.236 45.0059L493.545 44.3845C493.446 44.35 493.358 44.2868 493.293 44.2027C488.472 38.2458 482.387 34.1671 475.038 31.9665C473.792 31.5912 471.995 31.5971 470.456 31.1046C464.81 29.287 460.984 30.0023 454.114 31.1515C437.035 34.0009 420.693 46.3017 418.721 64.6297C418.397 67.6394 416.691 76.3363 413.601 90.7204C412.56 95.5828 411.004 105.159 408.932 119.449C408.375 123.331 407.709 126.868 406.937 130.062C406.176 133.216 405.837 136.335 405.217 139.489C402.935 151.145 401.929 163.622 399.003 175.841C397.821 180.789 397.33 185.116 396.756 189.877C396.37 193.055 395.124 195.963 394.819 199.164C394.264 205.033 393.064 210.362 391.911 216.143C391.402 218.682 391.379 221.813 390.753 224.621C389.378 230.824 388.728 237.069 387.301 243.278C386.037 248.777 385.434 253.433 385.083 258.598C385.077 258.709 385.101 258.819 385.154 258.916C385.206 259.014 385.285 259.094 385.382 259.149ZM335.443 170.476C335.724 168.263 335.328 166.178 334.255 164.22C334.198 164.121 334.171 164.008 334.179 163.897C334.288 162.248 334.163 160.636 333.804 159.06C332.897 155.079 331.991 151.685 331.786 148.055C331.556 143.983 330.939 140.74 329.937 138.329C329.044 136.171 328.499 134.263 328.304 132.606C328.18 131.539 327.973 130.619 327.684 129.845C326.896 127.73 326.418 125.545 326.251 123.29C325.812 117.321 324.197 111.347 322.927 105.501C322.184 102.077 322.266 98.9228 321.242 95.3405C320.244 91.8344 319.582 88.2676 319.259 84.6404C319.118 83.0456 318.837 81.5681 318.416 80.2079C316.977 75.5291 315.758 70.7937 314.759 66.0016C314.367 64.1196 314.572 61.7509 314.238 60.2734C314 59.2376 313.236 56.9529 311.945 53.4195C311.57 52.3934 310.394 51.6019 309.844 50.5935C309.091 49.2137 308.259 47.873 307.346 46.5714C307.252 46.4435 307.111 46.3573 306.954 46.331C304.093 45.8913 302.694 42.5376 300.775 41.0953C293.067 35.326 284.404 32.0388 274.784 31.2336C273.77 31.1476 272.776 31.2238 271.8 31.4622C269.788 31.9606 268.079 31.0166 265.938 31.4329C251.041 34.3293 240.304 42.8249 233.727 56.9197C230.747 63.3066 229.472 69.7931 229.901 76.3793C230.17 80.5127 231.826 84.5524 233.166 88.6448C233.4 89.3484 233.815 90.0324 234.412 90.6969C235.964 92.4089 237.066 94.3946 237.718 96.6538C237.755 96.7861 237.838 96.9004 237.952 96.9763C239.286 97.8987 240.095 98.6082 240.38 99.1046C245.143 107.389 250.35 115.357 255.213 123.571C256.082 125.037 256.911 126.341 257.699 127.482C266.049 139.542 270.595 147.141 276.446 157.46C277.523 159.348 279.337 160.919 280.437 162.59C285.043 169.63 289.447 176.794 293.648 184.084C297.171 190.205 301.6 195.57 304.701 201.843C305.278 203.008 306.045 204.173 307.001 205.338C309.762 208.711 312.015 212.403 313.759 216.413C313.812 216.535 313.904 216.636 314.022 216.7C315.282 217.377 316.066 218.035 316.374 218.676C318.016 222.108 319.9 225.393 322.026 228.532C323.202 230.267 323.998 232.466 325.443 234.295C326.567 235.714 327.341 236.783 327.766 237.503C330.387 241.935 333.927 245.863 335.741 250.759C335.779 250.859 335.842 250.946 335.922 251.011C340.205 254.5 340.381 260.327 344.196 261.993C344.328 262.049 344.478 262.056 344.617 262.01C346.61 261.338 348.615 260.662 350.632 259.982C353.569 258.991 351.925 253.995 351.486 251.832C350.421 246.637 349.684 242.175 348.918 237.309C348.59 235.21 347.753 232.683 347.508 230.279C347.402 229.236 347.233 228.34 346.999 227.594C345.922 224.158 345.208 220.318 344.33 213.915C343.804 210.057 342.247 206.721 342.031 202.57C341.908 200.184 340.972 198.097 340.609 195.746C340.1 192.445 339.129 189.367 338.983 186.054C338.947 185.288 338.788 184.524 338.503 183.762C337.42 180.871 337.362 177.054 337.333 173.489C337.325 172.254 336.824 171.457 335.829 171.097C335.703 171.053 335.596 170.967 335.526 170.854C335.455 170.741 335.426 170.607 335.443 170.476ZM404.532 265.722C400.875 270.136 405.626 272.165 408.71 273.678C408.814 273.728 408.93 273.746 409.045 273.729C409.16 273.713 409.267 273.662 409.354 273.584C411.382 271.762 413.488 270.035 415.673 268.401C427.761 259.366 439.738 250.173 451.99 241.36C457.695 237.25 463.195 232.888 468.941 228.896C473.756 225.548 478.73 220.969 482.82 217.978C492.474 210.931 502.035 203.757 511.502 196.455C525.778 185.444 540.857 175.008 551.944 166.465C558.646 161.302 564.152 157.149 568.462 154.006C572.131 151.333 578.228 144.971 578.655 140.914C578.662 140.837 578.686 140.761 578.725 140.691C578.765 140.622 578.818 140.56 578.883 140.51C579.87 139.755 580.41 138.991 580.504 138.217C580.831 135.538 581.738 132.63 582.183 130.449C582.897 126.978 582.622 123.935 582.733 120.569C582.862 116.782 582.581 114.179 581.422 110.936C580.047 107.102 576.741 96.9821 573.008 95.1529C571.713 94.5157 570.758 93.863 570.141 93.1946C563.588 86.0768 556.397 83.2391 547.328 81.7909C536.135 79.9968 525.819 83.2039 516.709 89.6943C514.962 90.9373 513.612 92.2174 512.66 93.5346C509.821 97.4668 506.125 103.23 501.572 110.825C499.636 114.067 497.05 117.438 494.955 120.909C490.099 128.959 484.774 136.64 479.906 144.672C472.639 156.668 465.43 168.699 457.713 180.408C455.552 183.683 453.666 187.115 452.055 190.703C451.54 191.853 450.223 192.99 449.521 194.104C443.37 203.852 437.177 213.573 430.944 223.267C424.455 233.351 418.317 243.67 411.992 253.861C409.67 257.613 408.166 261.33 404.532 265.722ZM160.261 149.269C164.246 154.317 169.968 158.556 174.971 162.103C189.786 172.587 204.238 183.615 218.813 194.426C221.335 196.291 224.079 197.774 226.782 199.375C226.892 199.44 226.979 199.538 227.028 199.656C227.64 201.149 228.309 202.105 229.035 202.523C234.211 205.51 238.697 208.492 242.492 211.47C254.411 220.816 266.798 229.488 278.892 238.599C294.52 250.366 311.149 262.38 328.497 274.293C328.591 274.356 328.702 274.391 328.815 274.393C328.928 274.395 329.039 274.364 329.135 274.305L332.769 272.059C332.851 272.009 332.92 271.94 332.969 271.857C333.018 271.774 333.046 271.68 333.05 271.585C333.151 268.442 332.092 265.87 329.872 263.869C328.105 262.28 327.632 259.677 326.292 257.724C321.318 250.478 316.563 243.09 312.027 235.562C310.267 232.646 308.264 229.556 306.018 226.292C302.144 220.675 298.499 214.549 294.854 209.231C292.297 205.49 289.564 201.873 287.645 197.751C284.942 191.946 280.671 186.148 276.984 180.906C273.14 175.442 269.875 169.291 265.809 163.722C264.305 161.658 263.065 159.09 261.953 157.378C256.102 148.349 250.333 139.271 244.646 130.144C243.807 128.795 242.114 126.44 239.567 123.079C237.285 120.065 235.892 116.143 233.593 112.994C229.587 107.506 226.049 101.721 222.979 95.6395C222.601 94.8968 222.076 94.291 221.405 93.8219C216.038 90.0696 212.529 87.7067 210.879 86.7335C205.262 83.4267 197.217 82.6645 190.962 83.2567C189.448 83.3974 187.988 83.4951 186.579 83.5498C181.237 83.7609 175.316 86.9152 170.114 90.1106C168.593 91.0448 167.199 92.1842 165.931 93.5288C160.876 98.8818 156.639 103.86 154.539 111.024C154.182 112.25 153.193 112.748 153.082 114.149C152.824 117.288 152.386 120.405 151.765 123.501C150.478 129.927 156.218 144.156 160.261 149.269ZM418.692 289.361C421.495 291.607 425.865 287.737 429.113 287.597C431.915 287.474 434.168 286.606 436.789 285.867C452.096 281.524 467.467 277.43 482.902 273.584C485.189 273.015 487.647 271.936 490.116 271.327C497.682 269.462 505.13 267.228 512.637 265.159C516.469 264.103 520.395 263.03 524.427 263.077C524.534 263.077 524.639 263.049 524.731 262.995C526.982 261.655 528.538 260.877 529.4 260.662C540.365 257.926 551.289 255.035 562.172 251.99C563.512 251.615 564.981 250.9 566.163 250.612C569.942 249.68 573.687 248.554 577.49 247.745C579.784 247.265 582.101 246.315 584.19 245.84C585.696 245.5 587.31 245.068 589.034 244.544C596.313 242.328 604.277 240.61 611.666 238.282C613.808 237.608 616.868 237.456 619.209 235.626C622.645 232.949 625.842 229.839 628.798 226.298C630.718 224 632.069 221.232 633.55 218.559C637.797 210.908 640.237 199.111 638.09 190.58C636.803 185.474 634.059 177.699 630.179 173.454C624.872 167.656 618.407 164.044 611.52 160.327C610.157 159.588 607.003 159.512 605.113 159.014C597.881 157.114 583.774 158.72 577.877 163.27C570.621 168.875 563.36 174.897 555.689 179.898C552.296 182.108 548.738 185.315 545.982 187.232C537.12 193.389 528.482 199.848 520.068 206.61C516.709 209.307 512.731 211.699 509.15 214.42C502.204 219.702 498.957 222.106 493.328 226.462C489.279 229.593 483.071 233.703 478.227 237.338C467.905 245.089 457.609 252.874 447.339 260.691C437.866 267.897 428.118 274.715 418.622 281.904C415.86 283.997 416 287.21 418.692 289.361ZM271.66 279.365C274.094 280.303 277.131 280.62 279.138 281.141C287.195 283.252 293.976 285.292 303.314 287.198C304.972 287.538 306.599 287.984 308.194 288.535C311.307 289.614 321.833 294.228 321.102 286.518C320.996 285.412 320.519 284.548 319.668 283.926C306.718 274.471 294.834 265.651 284.018 257.466C280.361 254.705 275.58 251.703 271.537 248.502C261.854 240.839 251.913 233.715 241.749 226.709C239.93 225.454 238.426 223.519 236.202 222.2C233.878 220.82 231.51 219.223 229.099 217.41C213.161 205.414 195.742 193.043 178.528 179.98C172.112 175.114 165.599 170.374 158.992 165.762C158.028 165.09 156.953 164.519 155.768 164.05C152.895 162.901 149.876 161.411 147.202 160.796C143.018 159.834 137.623 159.336 133.446 160.655C130.661 161.529 128.191 160.473 125.523 161.81C122.153 163.499 118.233 164.959 115.483 167.058C109.269 171.801 103.441 179.177 100.633 186.277C98.3684 191.999 98.0817 197.458 97.8184 203.538C97.6605 207.067 98.8951 210.638 99.6967 214.068C99.9717 215.258 100.633 215.797 101.323 216.724C102.517 218.307 102.271 220.564 103.213 221.895C104.61 223.869 105.955 225.886 107.25 227.946C110.088 232.449 116.928 236.5 121.533 238.998C122.949 239.764 124.562 240.362 126.372 240.792C137.953 243.536 145.343 245.31 148.541 246.115C151.186 246.784 153.632 247.951 156.628 248.478C159.46 248.977 162.912 250.143 164.948 250.7C172.385 252.735 179.728 254.939 187.305 256.599C190.903 257.384 194.946 258 198.217 259.718C200.78 261.066 204.191 261.529 207.023 262.104C208.681 262.44 210.364 262.858 212.073 263.359C219.749 265.593 228.046 267.516 235.219 269.515C243.446 271.813 251.704 273.99 259.993 276.046C262.485 276.668 266.909 276.914 269.758 278.697C270.301 279.037 270.745 279.226 271.092 279.265C271.373 279.293 271.562 279.326 271.66 279.365ZM537.013 273.367C536.708 273.015 527.276 276.521 525.989 276.105C525.879 276.067 525.762 276.063 525.656 276.093C520.015 277.629 514.41 279.281 508.84 281.048C502.994 282.906 496.944 283.698 490.994 285.451C475.863 289.907 463.57 292.187 451.756 296.585C450.37 297.101 448.591 297.06 447.538 297.394C443.758 298.596 439.902 300.032 435.947 300.419C435.186 300.493 434.418 300.673 433.641 300.959C430.794 302.018 427.872 302.815 424.877 303.351C423.593 303.581 422.456 303.943 421.465 304.435C420.802 304.768 420.137 305.106 419.47 305.45C418.655 305.876 418.7 306.169 419.605 306.329C420.096 306.415 420.568 306.556 421.021 306.751C422.019 307.185 422.776 307.433 423.291 307.496C430.265 308.329 439.218 307.191 448.176 307.977C451.909 308.305 455.542 308.639 459.328 308.076C464.594 307.302 470.023 307.965 475.366 307.684C477.187 307.586 482.098 307.629 490.099 307.813C491.579 307.848 493.334 307.402 494.785 307.484C500.326 307.789 504.849 307.848 511.408 308.164C517.704 308.469 524.749 307.789 530.202 307.813C536.65 307.836 543.1 307.801 549.551 307.707C550.367 307.695 551.556 307.811 553.121 308.053C555.59 308.428 558.702 307.947 560.393 307.918C576.554 307.629 592.717 307.574 608.881 307.754C614.399 307.818 620.156 307.25 625.463 307.713C630.384 308.141 635.533 308.88 640.939 307.93C643.128 307.543 644.678 307.736 646.779 307.924C650.88 308.299 655.175 307.666 659.277 307.437C664.531 307.15 663.917 301.111 664.876 297.4C666.093 292.686 665.754 288.423 664.32 283.61C663.203 279.881 661.705 273.766 659.593 272.575C659.497 272.522 659.418 272.445 659.365 272.353C654.292 263.212 645.585 254.892 635.439 252.788C634.265 252.545 632.888 252.149 631.309 251.597C627.342 250.214 623.324 250.032 619.255 251.052C606.237 254.312 590.363 258.528 574.623 263.054C569.568 264.504 564.46 265.745 559.299 266.777C556.637 267.305 553.056 268.929 550.072 269.738C546.14 270.801 541.894 272.042 537.334 273.461C537.277 273.478 537.217 273.479 537.159 273.462C537.102 273.446 537.051 273.412 537.013 273.367ZM264.984 308.557L278.441 308.51C283.093 308.405 287.019 308.411 292.268 307.965C298.23 307.461 304.233 308.129 310.184 308.545C312.536 308.715 317.731 308.106 314.958 304.142C314.886 304.04 314.783 303.963 314.665 303.925C312.918 303.347 311.147 302.85 309.353 302.436C302.571 300.859 295.93 298.866 289.143 297.265C283.415 295.916 276.376 293.665 272.146 292.58C256.917 288.683 247.249 286.156 243.142 284.999C235.766 282.924 229.528 281.372 224.43 280.344C222.725 279.035 220.836 278.325 218.76 278.216C209.89 276.238 202.82 274.571 197.55 273.215C195.239 272.622 192.547 271.52 190.125 270.91C168.605 265.485 147.131 259.845 125.705 253.989C122.272 253.051 119.409 252.518 117.115 252.389C104.77 251.697 94.2766 256.003 85.6365 265.305C82.2721 268.929 80.2184 273.566 78.2466 278.04C77.7434 279.177 77.9072 280.467 77.1641 281.687C76.6726 282.492 76.3781 283.125 76.2806 283.586C74.7476 290.675 73.7061 301.129 77.4099 307.701C77.8702 308.518 78.5684 308.927 79.5046 308.927C86.4049 308.919 93.3794 308.794 100.428 308.551C101.704 308.51 102.698 309.026 103.787 309.583C103.908 309.644 104.046 309.663 104.179 309.636C107.122 308.991 109.684 309.8 112.464 309.296C116.138 308.628 119.649 309.255 123.148 308.991C128.753 308.563 134.353 308.469 139.905 309.466C141.146 309.689 142.72 308.95 144.036 308.921C152.38 308.757 160.864 308.158 169.032 308.299C176.943 308.434 184.924 308.346 192.823 308.704C195.18 308.815 197.556 308.235 199.768 308.334C204.917 308.577 210.662 308.549 217.005 308.252C222.055 308.018 227.917 308.54 232.803 308.487C243.53 308.37 254.257 308.393 264.984 308.557ZM384.2 308.364C389.493 308.653 394.759 308.375 399.998 307.531C401.866 307.426 403.719 307.57 405.556 307.965C406.469 308.164 407.951 307.953 410.003 307.332C410.143 307.289 410.262 307.197 410.338 307.072C410.414 306.948 410.44 306.8 410.413 306.658C410.015 304.652 409.851 302.63 409.921 300.589C409.974 298.93 408.376 298.062 407.879 296.573C406.455 292.32 405.287 289.469 404.374 288.019C403.329 286.354 401.396 284.075 398.576 281.182C394.855 277.366 388.36 273.502 384.165 271.766C379.624 269.89 374.791 269.966 370.848 269.005C369.12 268.583 367.089 268.895 364.757 269.943C364.657 269.989 364.548 270.005 364.441 269.99C358.297 269.169 351.873 272.259 346.484 275.143C335.443 281.065 328.404 295.389 327.93 307.842C327.927 307.923 327.94 308.005 327.97 308.081C327.999 308.156 328.044 308.225 328.101 308.283C328.158 308.34 328.227 308.385 328.302 308.414C328.377 308.443 328.458 308.456 328.538 308.452C334.033 308.205 339.451 308.768 344.916 308.475C348.485 308.284 352.364 308.246 356.553 308.364C361.029 308.487 365.991 308.053 370.596 308.205C375.129 308.35 379.663 308.403 384.2 308.364Z" fill="#414141"/>
<path d="M237.101 377.039C236.517 376.651 235.883 376.52 235.201 376.645C230.859 376.551 226.519 376.334 222.181 375.993C219.445 375.776 217.124 376.575 214.517 377.191C214.37 377.225 214.218 377.202 214.09 377.127C212.11 375.971 209.988 375.713 207.723 376.351C206.612 376.222 205.517 376.336 204.437 376.692C204.344 376.723 204.248 376.729 204.151 376.71L202.169 376.351C199.298 375.646 197.083 376.639 194.534 376.651C191.443 376.659 188.354 376.584 185.267 376.428C177.1 376.011 169.16 376.763 160.847 376.334C155.906 376.075 150.212 376.575 146.125 376.61C141.175 376.645 136.227 376.753 131.281 376.933C130.311 376.968 129.03 376.422 127.949 376.416C109.821 376.365 91.6952 376.434 73.5713 376.622C71.0047 376.645 68.8123 376.745 66.0528 376.375C64.065 376.11 61.9252 376.833 60.0544 376.786C40.2234 376.322 20.3514 376.733 0.57298 376.246C0.418963 376.242 0.272383 376.179 0.165097 376.069C0.0578121 375.959 -0.00150944 375.811 2.92007e-05 375.658L0.0877263 364.914C0.0892491 364.76 0.15072 364.613 0.258937 364.504C0.367153 364.395 0.513486 364.334 0.66652 364.332C18.0888 364.183 35.5092 364.115 52.9276 364.127C55.9093 364.132 59.7679 364.291 63.2231 364.291C103.721 364.309 144.254 363.78 184.741 364.138C187.611 364.162 192.598 363.856 196.942 364.097C200.111 364.268 206.168 364.091 211.892 364.221C214.563 364.279 217.025 363.762 219.708 364.009C222.733 364.287 225.753 364.174 228.77 363.668C229.711 363.51 231.325 364.179 232.488 364.168C243.93 364.05 255.395 364.32 266.807 364.197C285.703 363.997 304.596 363.935 323.488 364.009C323.527 364.009 325.271 363.927 328.72 363.762C331.375 363.639 334.234 364.179 336.596 364.156C351.223 364.021 365.863 363.815 380.485 364.185C387.687 364.365 394.886 364.293 402.081 363.968C416.96 363.292 431.442 364.649 446.841 364.132C448.093 364.093 449.287 363.835 450.425 363.357C450.564 363.297 450.721 363.295 450.864 363.351C453.152 364.252 455.469 364.395 457.815 363.78C459.359 363.375 460.452 363.933 461.954 363.95C476.231 364.103 490.497 363.692 504.762 363.792C521.9 363.909 532.312 364.07 535.999 364.273C543.208 364.667 551.843 369.273 557.157 372.692C562.665 376.24 566.927 381.662 571.388 386.473C571.478 386.572 571.534 386.696 571.545 386.825C571.709 388.768 572.553 390.307 574.077 391.443C574.14 391.489 574.193 391.548 574.233 391.617C574.273 391.686 574.3 391.762 574.311 391.842C574.658 394.717 575.277 397.509 576.17 400.219C577.175 403.274 577.655 405.911 578.362 408.849C578.719 410.335 577.959 411.345 578.386 412.691C579.403 415.916 578.941 419.758 578.514 423C578.105 426.114 576.801 429.192 575.679 432.241C574.837 434.514 574.135 438.051 572.65 440.806C572.366 441.33 572.124 442.047 571.925 442.956C571.3 445.793 567.599 449.306 565.5 451.227C564.711 451.474 562.665 452.096 563.051 452.46C563.077 452.488 563.112 452.506 563.15 452.513C563.188 452.519 563.227 452.513 563.261 452.496L565.547 451.374C571.616 450.587 578.392 449.312 583.829 446.375C586.29 445.041 588.933 444.06 591.096 442.468C601.035 435.184 610.214 423.1 611.786 410.535C612.309 406.364 612.616 403.221 612.71 401.106C613.751 378.084 597.854 359.116 576.76 352.113C575.003 351.53 571.91 351.24 567.482 351.244C567.35 351.244 567.222 351.198 567.12 351.115C564.442 348.976 554.696 350.351 551.72 350.328C542.728 350.249 533.737 350.145 524.745 350.016C523.511 349.999 522.202 350.521 520.834 350.416C516.944 350.114 514.215 350.048 512.649 350.216C509.731 350.527 506.679 350.874 503.774 350.339C500.523 349.746 496.168 351.009 492.812 351.356C492.669 351.371 492.526 351.333 492.408 351.25C491.36 350.494 490.495 350.12 489.813 350.128C479.903 350.263 471.537 350.422 460.16 350.903C454.301 351.15 448.451 350.999 442.609 350.451C440.847 350.286 439.091 350.282 437.341 350.439C430.021 351.085 423.187 350.956 415.879 350.375C411.751 350.046 407.643 350.353 403.555 351.297C403.444 351.324 403.326 351.315 403.215 351.273C401.633 350.67 400.039 350.666 398.433 351.262C398.315 351.304 398.187 351.308 398.065 351.273C395.757 350.596 393.46 350.488 391.172 350.95C390.19 351.15 389.295 351.201 388.488 351.103C385.924 350.797 383.359 350.686 380.794 350.768C375.392 350.933 370.008 350.956 364.612 350.98C359.712 351.003 352.311 350.592 346.137 350.88C343.565 350.997 341.138 350.181 338.39 350.457C337.416 350.261 336.461 350.282 335.526 350.521C334.333 350.821 333.398 350.698 332.252 350.897C322.897 350.95 313.824 351.226 304.189 351.032C295.17 350.848 283.806 350.897 270.098 351.179C258.341 351.42 239.083 351.097 220.252 351.156C193.277 351.234 166.299 351.314 139.32 351.397C109.381 351.485 79.406 351.209 49.4607 351.22C49.0086 351.22 47.4398 351.107 44.7543 350.88C42.2111 350.668 39.5042 351.226 37.3001 351.22C24.9993 351.162 12.7783 351.218 0.637291 351.391C0.560314 351.392 0.483799 351.378 0.412229 351.349C0.340659 351.321 0.275472 351.278 0.220483 351.223C0.165494 351.168 0.121809 351.103 0.091986 351.031C0.0621631 350.959 0.0468023 350.881 0.0468016 350.803L0.0234154 339.906C0.0234154 339.75 0.0850109 339.601 0.194652 339.491C0.304294 339.381 0.453 339.319 0.608057 339.319C4.51346 339.319 9.70507 339.883 13.4 338.708C14.3471 338.406 15.1968 338.281 15.949 338.332C21.4681 338.702 26.9812 338.355 32.5061 338.397C35.7099 338.42 39.1593 339.342 42.8425 338.808C45.8184 338.367 47.8997 338.332 50.5306 338.385C50.6046 338.389 50.6748 338.404 50.7411 338.432L52.1208 339.013C52.2169 339.053 52.3214 339.067 52.424 339.053C52.5265 339.04 52.6236 339 52.7055 338.937C54.4945 337.562 59.9492 338.479 63.2115 338.837C66.6316 339.213 70.4902 338.244 73.7818 338.279C86.9303 338.42 100.307 337.968 113.415 338.714C115.554 338.835 118.051 338.694 120.904 338.291C124.061 337.844 129.06 341.14 131.48 338.508C131.533 338.449 131.599 338.402 131.672 338.369C131.746 338.337 131.826 338.32 131.907 338.32C156.479 338.214 181.081 338.714 205.642 338.25C206.176 338.242 206.93 338.381 207.904 338.667C209.728 339.201 211.4 338.414 212.961 338.426C223.197 338.512 233.43 338.422 243.661 338.156C243.743 338.152 243.826 338.166 243.902 338.198C243.979 338.229 244.048 338.277 244.105 338.338C244.663 338.941 245.356 339.229 246.187 339.201C246.288 339.197 246.382 339.17 246.467 339.119C247.465 338.528 248.192 338.236 248.648 338.244C264.79 338.408 280.926 338.015 297.062 338.103C332.031 338.295 367.001 338.359 401.97 338.297C404.27 338.293 406.56 338.132 408.84 337.815C411.862 337.398 415.195 339.272 419.369 337.069C419.454 337.024 419.547 337 419.642 337C419.737 337 419.83 337.024 419.913 337.069C421.452 337.887 422.401 338.297 422.76 338.297C432.711 338.214 442.86 338.52 452.776 337.874C454.617 337.756 456.605 338.097 458.166 338.115C468.042 338.216 477.919 338.16 487.796 337.944C491.941 337.85 496.974 338.461 501.763 338.226C504.304 338.101 511.088 337.874 522.114 337.545C524.131 337.486 526.885 338.126 529.194 338.132C538.759 338.15 548.323 338.191 557.888 338.044C561.556 337.985 565.381 338.099 569.365 338.385C583.045 339.354 596.568 346.333 606.489 355.579C608.319 357.283 610.366 361.013 612.453 363.516C617.395 369.441 620.694 376.163 622.351 383.683C622.803 385.746 623.376 388.482 624.07 391.889C624.865 395.784 625.344 399.426 624.701 403.521C623.654 410.165 623.134 416.374 620.614 423.047C618.305 429.168 615.616 435.63 611.43 440.518C608.436 444.013 604.876 446.657 601.602 449.87C596.89 454.493 588.781 457.953 583.449 459.945C573.013 463.839 560.478 464.315 549.464 463.857C543.564 463.616 544.465 455.909 545.003 452.061C545.017 451.958 545.059 451.86 545.123 451.778C545.188 451.697 545.274 451.634 545.371 451.597C547.248 450.869 549.089 450.228 550.639 448.807C553.474 446.21 556.824 443.719 558.847 440.571C560.41 438.135 561.704 435.554 562.729 432.828C563.064 431.935 563.573 430.958 564.255 429.897C567.108 425.456 565.512 420.697 566.336 415.44C566.57 413.954 566.956 412.356 566.722 410.858C566.071 406.612 564.988 402.583 563.471 398.768C562.659 396.718 561.074 395.161 560.332 393.17C559.853 391.883 559.742 390.761 558.666 389.786C552.93 384.587 547.797 379.729 540.086 377.632C534.781 376.191 528.909 375.65 522.471 376.011C512.438 376.569 502.336 376.128 492.28 376.187C489.924 376.204 485.363 375.687 481.943 375.946C473.653 376.569 465.17 375.987 456.792 376.475C454.524 376.604 452.249 375.787 449.975 376.21C447.321 376.704 444.668 376.723 442.018 376.269C439.393 375.817 436.797 376.645 434.418 376.486C427.714 376.032 421.002 375.899 414.283 376.087C412.903 376.128 411.588 376.827 409.933 376.698C402.21 376.099 394.072 376.457 386.156 376.31C367.172 375.964 347.71 376.669 328.44 376.633C322.336 376.622 315.174 375.593 308.621 376.128C307.814 376.195 306.96 376.496 306.06 377.033C305.941 377.102 305.802 377.128 305.668 377.105C305.533 377.083 305.411 377.013 305.323 376.909C303.575 374.859 300.336 375.67 298.378 376.868C298.265 376.94 298.128 376.969 297.992 376.95C292.605 376.179 287.215 375.993 281.821 376.392C275.261 376.874 269.075 375.317 262.457 376.334C258.653 376.917 255.412 377.005 252.735 376.598C250.092 376.199 247.789 376.24 245.824 376.721C243.17 377.368 241.258 374.748 238.814 377.033C238.752 377.092 238.678 377.137 238.597 377.164C238.517 377.191 238.431 377.201 238.347 377.191L237.101 377.039Z" fill="#414141"/>
<path d="M78.2421 647.476C79.3848 647.465 79.4999 647.116 78.5873 646.43C77.6863 645.752 76.7776 645.088 75.861 644.437C70.1979 640.422 64.488 634.209 60.7379 629.597C54.3767 621.773 49.7745 612.683 46.9312 602.326C46.3228 600.117 44.9128 597.755 44.4975 595.289C43.2046 587.65 41.7595 582.045 41.4904 574.587C41.3968 571.933 42.5727 569.712 42.4031 567.199C41.9701 560.706 44.1348 553.09 46.4105 546.24C47.0482 544.317 47.0541 541.985 48.0369 539.846C50.0845 535.375 52.1614 530.477 54.6244 526.59C60.3343 517.595 68.4604 509.407 76.4109 502.574C83.9344 496.11 94.5762 491.417 103.738 487.74C104.67 487.366 105.674 487.177 106.751 487.173C110.963 487.162 114.327 485.221 118.481 484.689C120.903 484.385 123.032 484.239 125.407 483.368C127.952 482.433 131.802 480.645 134.411 482.018C134.486 482.058 134.552 482.114 134.604 482.182C134.656 482.249 134.693 482.327 134.712 482.41C134.731 482.493 134.731 482.578 134.714 482.661C134.696 482.744 134.661 482.822 134.61 482.889C131.275 487.335 127.958 491.843 124.658 496.414C123.559 497.939 122.435 500.365 120.809 502.183C116.784 506.683 114.988 511.99 111.811 517.057C111.292 517.887 110.939 518.787 110.752 519.758C110.257 522.329 109.596 524.85 108.769 527.321C105.516 537.075 106.201 548.233 107.347 558.339C107.657 561.068 108.512 564.031 109.026 566.959C109.676 570.636 111.811 575.428 112.817 577.725C116.097 585.195 119.668 591.219 123.529 595.797C125.971 598.692 129.99 602.472 135.587 607.136C144.093 614.22 152.424 617.96 163.001 621.789C167.124 623.281 171.034 623.957 174.731 623.817C178.218 623.682 181.992 624.951 184.729 624.951C193.002 624.955 201.272 624.959 209.541 624.962C212.261 624.962 215.42 625.722 218.515 625.553C227.776 625.033 237.429 624.495 246.678 625.272C251.517 625.675 256.659 624.962 260.526 624.951C271.583 624.916 282.638 625.021 293.692 625.266C296.663 625.331 300.583 624.945 303.883 624.974C326.623 625.167 349.369 625.079 372.062 625.418C373.273 625.436 374.543 625.009 375.631 625.009C378.474 625.001 382.85 625.132 388.759 625.401C390.14 625.459 391.866 625.114 393.293 625.114C408.399 625.091 417.554 624.81 425.821 625.331C430.46 625.623 436 624.775 439.511 625.091C453.446 626.353 469.031 625.705 481.633 625.383C482.553 625.36 483.731 625.401 485.166 625.506C488.881 625.781 492.637 625.471 496.376 625.629C503.302 625.921 512.3 624.904 517.027 625.389C521.579 625.853 525.381 626.061 528.435 626.014C542.932 625.788 557.427 625.79 571.921 626.02C579.912 626.143 587.781 626.348 595.503 625.997C608.953 625.377 622.801 625.711 633.776 626.061C636.245 626.143 638.45 626.04 640.393 625.751C641.477 625.596 642.503 625.59 643.47 625.734C647.202 626.289 650.789 625.535 653.778 625.67C675.892 626.669 698.235 626.126 720.378 626.143C731.33 626.149 742.779 625.979 753.298 626.313C753.449 626.317 753.592 626.379 753.698 626.486C753.804 626.593 753.864 626.736 753.865 626.885L754 637.774C754.002 637.901 753.962 638.026 753.887 638.128C753.812 638.231 753.706 638.305 753.585 638.341C752.204 638.744 750.735 638.37 749.77 638.376C687.616 638.614 634.851 638.551 591.472 638.189C579.604 638.092 571.353 638.097 566.72 638.207C559.857 638.37 546.15 637.762 535.222 637.973C530.524 638.066 524.656 638.183 519.508 638.019C509.902 637.716 499.623 637.54 490.04 638.189C487.185 638.376 485.658 637.137 482.516 638.242C481.44 638.616 479.07 637.844 477.772 637.856C466.126 637.926 454.482 637.994 442.839 638.06C440.891 638.072 439.031 637.47 437.071 637.552C433.479 637.716 429.916 637.64 426.336 637.891C421.597 638.23 417.104 638.382 412.359 637.944C404.151 637.19 395.142 637.85 386.858 637.99C383.061 638.055 378.691 637.488 374.765 637.575C365.354 637.79 355.941 637.877 346.526 637.838C342.009 637.815 335.627 638.154 330.162 637.908C324.739 637.669 319.316 637.979 313.401 637.739C305.925 637.435 290.595 637.408 267.412 637.657C261.538 637.721 256.033 637.353 249.656 637.207C244.128 637.084 239.424 637.482 232.281 637.266C229.098 637.172 225.927 638.271 222.721 637.721C218.059 636.921 213.765 637.529 209.195 637.09C207.078 636.886 205.071 637.47 202.848 637.19C193.815 636.032 184.846 638.247 175.849 636.044C172.754 635.284 169.952 636.202 166.898 635.465C158.356 633.402 150.072 630.684 142.677 626.301C139.951 624.688 135.359 623.121 133.697 621.736C126.646 615.872 120.559 609.969 115.438 604.027C107.654 594.995 101.989 584.533 98.4432 572.641C98.1624 571.694 97.3902 570.694 97.2381 570.022C95.0149 559.887 94.7341 550.676 94.9506 536.947C94.974 535.492 95.8398 534.364 95.7696 533.054C95.6058 530.007 95.8866 527.408 96.6121 525.257C98.4315 519.851 99.5372 513.913 102.445 508.992C103.646 506.962 104.465 504.795 104.902 502.492C104.919 502.406 104.916 502.317 104.894 502.232C104.871 502.147 104.829 502.069 104.772 502.002C104.714 501.936 104.642 501.883 104.562 501.849C104.481 501.814 104.393 501.798 104.305 501.803C102.519 501.877 100.793 502.338 99.1277 503.188C94.8882 505.35 90.9061 507.698 87.1814 510.231C82.8755 513.165 78.8154 517.262 74.7085 520.909C71.368 523.872 68.9869 527.923 66.3952 531.529C64.5699 534.065 63.7567 536.842 61.9841 539.314C60.2329 541.757 59.0335 544.005 58.3861 546.059C56.5101 551.997 55.0729 558.687 54.0744 566.13C53.6493 569.293 53.4992 572.559 53.624 575.925C53.7644 579.767 53.9984 583.607 54.326 587.445C54.4372 588.725 54.1446 590.765 54.6887 591.87C54.9812 592.466 55.3264 592.98 55.5604 593.594C61.1943 608.1 66.6585 619.924 77.5108 629.784C86.4618 637.92 95.6643 644.355 107.388 648.464C107.944 648.663 108.471 648.587 108.904 648.709C116.146 650.779 123.533 652.023 131.065 652.444C134.937 652.661 138.845 653.239 142.718 652.713C144.941 652.409 147.252 652.894 149.195 652.836C155.388 652.657 161.578 652.772 167.764 653.181C169.279 653.28 171.672 652.205 173.819 652.713C174.692 652.92 175.42 653.027 176.001 653.035C183.692 653.089 191.381 653.134 199.069 653.169C203.585 653.192 209.359 652.45 214.677 652.982C217.045 653.22 219.026 653.317 220.621 653.274C226.651 653.118 232.681 653.099 238.71 653.216C244.824 653.338 251.786 652.713 258.549 653.753C258.688 653.772 258.816 653.843 258.906 653.952L259.871 655.086C259.925 655.149 259.992 655.2 260.067 655.235C260.142 655.27 260.224 655.289 260.307 655.29C260.39 655.291 260.472 655.274 260.548 655.241C260.624 655.208 260.693 655.159 260.748 655.098L261.562 654.215C261.637 654.128 261.742 654.066 261.86 654.04C263.112 653.748 263.935 653.603 264.329 653.607C293.171 653.789 321.568 653.935 350.925 653.613C351.023 653.609 351.116 653.584 351.206 653.537L351.668 653.274C351.775 653.213 351.899 653.187 352.025 653.198C354.919 653.525 357.181 653.693 358.811 653.701C378.769 653.802 398.724 653.765 418.678 653.59C419.235 653.586 420.832 653.656 423.469 653.8C428.647 654.087 435.053 653.414 438.633 653.596C445.963 653.958 452.352 653.216 459.331 653.718C462.05 653.917 464.536 653.968 466.791 653.87C476.642 653.461 485.623 653.648 496.358 653.496C502.296 653.414 508.989 654.011 514.172 654.057C538.248 654.283 562.326 654.318 586.406 654.163C591.168 654.133 597.434 654.391 603.062 653.771C604.813 653.58 607.832 653.613 612.118 653.87C625.492 654.665 639.024 654.315 652.427 654.356C671.549 654.422 690.672 654.504 709.795 654.601C724.339 654.677 738.783 654.355 753.339 654.957C753.489 654.963 753.631 655.027 753.735 655.135C753.84 655.242 753.899 655.386 753.9 655.536L753.982 665.577C753.99 666.45 753.53 666.898 752.602 666.922C743.142 667.167 732.915 666.764 724.117 666.694C721.897 666.674 719.099 666.604 715.721 666.483C704.278 666.078 692.833 666.154 681.386 666.711C678.648 666.846 676.062 666.396 673.353 666.36C660.163 666.201 646.972 666.168 633.782 666.261C631.489 666.273 628.476 666.01 625.878 666.08C613.587 666.431 601.377 666.045 589.097 666.033C552.88 666.01 516.663 666.006 480.445 666.022C479.497 666.022 476.588 665.909 471.717 665.683C466.849 665.455 461.455 666.045 457.249 666.016C451.219 665.981 445.191 665.924 439.165 665.846C437.048 665.817 435.427 666.302 433.21 665.221C433.099 665.168 432.975 665.149 432.853 665.168C420.889 667.208 405.046 665.829 391.134 665.349C389.11 665.279 385.296 664.689 382.295 665.051C380.341 665.289 378.894 665.398 377.954 665.379C368.659 665.215 359.371 665.219 350.089 665.39C349.978 665.394 349.87 665.366 349.778 665.308C347.47 663.933 345.18 663.953 342.91 665.367C342.815 665.428 342.703 665.458 342.588 665.455C335.077 665.338 327.578 665.246 320.094 665.18C318.883 665.168 317.508 664.794 316.233 664.706C316.125 664.703 316.021 664.725 315.929 664.771C315.082 665.203 314.289 665.416 313.547 665.408C307.329 665.326 300.607 664.794 294.446 665.42C292.44 665.618 291.076 665.91 288.994 665.367C286.127 664.619 283.206 664.348 280.23 664.554C277.445 664.747 276.451 666.6 273.186 665.811C272.075 665.538 271.207 665.412 270.583 665.431C262.995 665.642 255.647 665.121 247.767 665.443C245.304 665.542 242.472 665.116 240.155 665.098C221.52 664.977 202.883 664.946 184.244 665.005C171.198 665.045 156.022 665.408 145.281 664.975C142.385 664.858 140.156 665.238 136.242 664.929C129.737 664.414 123.055 664.794 116.521 664.841C107.757 664.911 100.029 663.613 90.4809 663.058C88.5269 662.941 86.8284 662.713 85.3853 662.374C78.4176 660.726 68.1912 658.61 61.1475 654.443C58.6084 652.943 56.9723 652 56.239 651.614C47.8556 647.219 40.3672 640.597 33.2122 634.448C31.89 633.311 30.4138 631.62 28.7835 629.375C27.4087 627.487 25.0803 626.032 23.6119 624.244C18.9667 618.594 14.9983 612.5 11.7065 605.961C10.7763 604.114 9.3137 602.244 8.57071 599.924C5.78011 591.186 2.94856 582.384 1.50938 573.319C-0.257413 562.225 -0.228159 554.908 1.01796 543.715C1.56009 538.86 2.16072 535.26 2.81985 532.914C4.58664 526.66 6.03168 519.313 9.08554 513.586C11.3282 509.377 13.563 505.167 15.79 500.955C16.8079 499.034 17.9683 497.273 19.2709 495.671C24.5538 489.16 29.8658 482.585 36.2778 477.202C47.7502 467.576 60.6034 458.125 75.7557 455.577C78.5814 455.098 82.1033 452.438 84.695 453.461C84.82 453.51 84.958 453.517 85.0869 453.479C88.3787 452.458 91.7505 451.918 95.2021 451.86C97.6944 451.819 99.7186 450.983 102.059 450.93C108.326 450.794 114.594 450.747 120.862 450.79C121.001 450.79 121.135 450.84 121.236 450.93C122.862 452.315 123.845 451.176 125.308 450.954C127.467 450.626 129.116 451.497 131.117 451.298C135.123 450.897 139.489 450.882 144.216 451.252C146.404 451.421 148.931 450.778 151.049 450.778C162.861 450.79 174.959 451.199 186.537 450.913C209.775 450.334 233.176 450.778 256.437 450.79C256.523 450.79 256.602 450.807 256.677 450.843L259.21 451.994C259.338 452.051 259.481 452.061 259.613 452.023C263.738 450.843 268.167 450.176 272.332 451.515C273.549 451.906 276.843 450.965 278.44 450.93C287.27 450.724 296.098 450.706 304.924 450.878C306.369 450.907 307.943 451.69 309.692 451.193C311.436 450.696 312.377 450.702 313.969 450.866C314.108 450.881 314.237 450.948 314.331 451.053C315.026 451.797 315.944 452.037 317.087 451.772C319.369 451.234 321.966 450.749 324.529 450.772C360.701 451.059 393.001 450.597 425.979 450.807C428.336 450.819 430.647 451.807 432.9 451.561C444.396 450.311 456.108 450.767 467.662 450.79C468.431 450.79 469.308 450.952 470.295 451.275C473.366 452.269 477.865 450.919 481.206 450.913C491.112 450.897 497.739 450.776 501.085 450.55C505.426 450.252 514.231 442.946 516.471 439.293C522.392 429.644 520.918 419.322 513.154 411.286C511.3 409.374 509.018 409.094 506.994 407.451C504.993 405.83 502.632 405.03 499.909 405.049C490.964 405.108 481.51 404.763 473.115 404.763C453.27 404.767 433.426 404.827 413.582 404.944C412.463 404.948 411.137 404.837 409.604 404.611C406.158 404.102 403.326 405.09 400.313 404.915C395.27 404.619 390.491 404.502 385.974 404.564C378.106 404.669 371.84 404.547 364.785 404.78C364.159 404.798 362.86 404.324 362.427 404.441C360.418 404.991 358.412 405.043 356.407 404.599C355.032 404.295 354.377 404.88 353.142 404.891C348.497 404.915 343.85 404.915 339.201 404.891C337.61 404.88 336.124 404.266 334.562 404.33C330.104 404.523 325.634 404.418 321.217 404.693C318.881 404.841 316.543 404.948 314.203 405.014C310.511 405.114 305.913 404.377 301.771 404.663C295.072 405.119 286.659 404.95 282.026 405.026C274.916 405.143 267.806 405.082 260.696 404.845C257.981 404.751 254.723 405.119 251.68 404.886C250.588 404.804 249.35 404.831 247.966 404.967C245.491 405.207 242.876 404.728 240.682 404.804C231.442 405.127 222.201 405.141 212.957 404.845C211.062 404.786 209.049 404.085 206.92 404.634C204.248 405.324 201.545 405.353 198.811 404.722C197.813 404.492 196.867 404.597 195.974 405.038C195.888 405.08 195.794 405.1 195.693 405.096C189.297 404.87 182.9 404.72 176.504 404.646C174.07 404.617 170.507 405.534 168.495 405.201C164.142 404.482 161.434 404.044 158.087 404.722C156.991 404.944 155.921 405.03 154.875 404.979C151.572 404.823 148.268 404.886 144.965 405.166C142.098 405.406 139.828 404.102 136.687 404.564C131.638 405.306 126.495 404.704 121.254 404.932C115.579 405.184 109.951 404.944 104.282 404.903C102.991 404.891 101.565 404.761 100.005 404.512C97.8114 404.161 95.5941 405.149 93.7747 405.055C92.6787 404.997 91.612 404.765 90.5745 404.36C90.4564 404.314 90.3296 404.306 90.2118 404.336C89.1295 404.617 88.0589 405.073 86.9415 405.061C79.4609 405.01 71.9822 404.903 64.5055 404.739C62.9669 404.704 61.0656 405.043 59.4275 405.049C49.8642 405.076 40.3009 405.014 30.7375 404.862C29.4154 404.845 28.1576 404.231 26.8061 404.593C25.9676 404.819 25.1154 404.946 24.2495 404.973C16.3594 405.191 8.46931 405.258 0.579184 405.172C0.42504 405.17 0.277733 405.108 0.16928 404.999C0.0608277 404.889 -7.70704e-06 404.742 7.32329e-10 404.587L0.0468036 394.225C0.046532 394.077 0.102712 393.935 0.203849 393.828C0.304987 393.72 0.443438 393.655 0.590883 393.646C4.17127 393.397 7.73216 393.323 11.2735 393.424C13.1691 393.477 14.5965 392.635 16.4043 392.635C22.2975 392.623 28.1907 392.614 34.0839 392.606C36.3772 392.6 38.7817 392.354 40.9171 392.372C55.1041 392.466 69.4257 392.851 83.601 392.442C91.6803 392.214 98.2033 392.758 109.383 392.372C111.928 392.284 114.397 393.132 116.936 392.845C120.423 392.448 123.906 392.469 127.385 392.91C130.965 393.36 133.674 392.436 137.008 392.553C143.537 392.779 150.062 392.723 156.584 392.384C160.176 392.197 163.627 393.29 167.073 392.933C172.202 392.399 177.329 392.429 182.454 393.021C183.273 393.114 184.004 392.594 184.776 392.594C198.365 392.59 211.951 392.411 225.535 392.056C227.987 391.998 231.128 392.506 233.778 392.483C250.596 392.343 267.414 392.294 284.232 392.337C287.151 392.349 291.644 393.336 293.99 392.951C298.463 392.222 302.951 392.056 307.451 392.454C308.805 392.575 310.26 392.573 311.816 392.448C315.051 392.197 318.567 392.647 321.387 392.582C338.031 392.203 348.714 392.559 358.589 392.355C375.198 392.004 388.964 392.156 410.99 392.185C417.08 392.191 426.09 392.542 433.643 392.39C448.046 392.109 462.444 392.635 476.847 392.056C483.265 391.793 489.823 392.553 496.399 392.232C509.299 391.595 520.736 400.163 527.417 410.871C530.112 415.192 531.392 419.523 531.255 423.863C531.228 424.732 531.61 425.907 532.402 427.388C532.47 427.516 532.488 427.664 532.454 427.803C530.132 437.067 528.716 445.945 521.86 452.538C517.698 456.535 513.445 459.302 509.1 460.837C501.483 463.526 492.678 463.759 484.336 463.415C473.255 462.953 457.723 463.777 449.497 463.467C442.646 463.204 435.895 463.508 428.968 463.303C422.913 463.128 415.431 463.461 410.803 463.491C362 463.771 317.736 463.303 272.525 463.514C270.875 463.526 269.237 462.526 267.681 462.871C261.544 464.25 256.255 463.298 250.434 463.315C215.527 463.42 180.621 463.496 145.714 463.543C129.208 463.566 115.353 463.42 104.147 463.105C102.782 463.066 101.331 463.204 99.7946 463.52C95.9607 464.303 92.082 464.718 88.1584 464.765C87.3939 464.776 86.6548 464.883 85.9411 465.086C76.2413 467.88 67.261 471.17 57.7601 476.355C45.4101 483.094 35.9911 493.649 27.4731 504.591C26.6813 505.608 25.9695 506.837 25.3377 508.279C23.6411 512.136 20.9617 515.432 19.5986 519.343C16.7963 527.373 12.7127 535.579 12.4729 544.311C12.4417 545.41 12.3052 546.456 12.0633 547.45C10.0625 555.656 12.6659 566.393 13.2568 574.727C13.3426 575.935 13.4967 576.958 13.719 577.796C16.9308 589.953 22.354 604.483 30.8253 614.156C34.1366 617.943 37.4888 622.128 40.9112 625.383C50.0884 634.123 60.5176 641.07 72.1987 646.225C74.1527 647.087 76.1672 647.504 78.2421 647.476Z" fill="#414141"/>
<path d="M519.499 582.842C513.831 582.502 506.888 582.859 502.551 582.83C493.54 582.764 484.53 582.684 475.522 582.59C466.374 582.812 457.223 582.924 448.067 582.924C446.764 582.924 444.917 583.521 443.818 583.322C436.817 582.057 430.85 583.105 424.737 582.953C422.158 582.887 420.851 582.853 420.816 582.853C393.419 582.904 366.023 582.883 338.63 582.789C338.205 582.785 336.361 582.668 333.096 582.438C330.649 582.266 327.951 582.389 325.002 582.807C319.245 583.614 312.694 582.637 306.692 582.847C302.139 583.006 297.289 583.333 292.777 582.766C291.684 582.625 290.597 582.9 289.627 582.853C284.192 582.596 278.755 582.551 273.316 582.719C271.516 582.777 269.74 582.403 268.051 582.461C264.153 582.596 260.313 582.192 256.427 582.502C253.101 582.766 250.349 581.993 247.883 582.373C238.824 583.766 228.924 581.291 220.427 578.774C207.325 574.887 199.394 564.288 192.282 553.465C192.243 553.407 192.216 553.344 192.2 553.278C191.277 549.341 190.155 545.168 188.834 540.759C188.057 538.16 188.559 535.374 187.84 532.599C187.571 531.558 187.48 530.617 187.566 529.778C188.746 517.982 192.278 506.93 198.161 496.621C198.558 495.926 198.362 495.638 197.571 495.755C189.946 496.859 182.721 499.417 175.895 503.428C171.097 506.243 167.292 511.136 162.898 516.644C160.846 519.225 159.759 522.234 158.31 525.201C154.131 533.752 154.494 543.691 155.055 553.032C155.487 560.272 159.59 568.794 163.091 575.086C163.14 575.178 163.217 575.255 163.313 575.309C166.287 576.994 167.146 579.447 169.174 581.513C174.983 587.407 184.27 591.58 192.387 593.974C193.84 594.403 196.665 594.784 200.861 595.115C203.273 595.303 206.119 595.422 209.399 595.472C226.612 595.742 243.827 595.812 261.044 595.683C303.885 595.355 346.724 595.426 389.561 595.894C392.495 595.929 396.083 595.508 398.526 595.554C420.459 595.988 436.174 595.508 450.989 595.8C456.395 595.911 462.204 595.361 467.913 595.935C469.164 596.06 470.637 596.081 472.331 595.999C474.622 595.882 476.983 596.227 479.117 596.105C488.718 595.549 498.373 595.765 507.992 595.642C524.104 595.443 538.259 596.21 556.311 595.876C558.579 595.835 561.869 596.707 563.915 596.321C567.074 595.728 569.168 595.531 570.197 595.73C572.235 596.132 573.892 596.292 575.17 596.21C583.878 595.636 591.425 595.599 597.81 596.099C599.809 596.255 601.566 596.251 603.082 596.087C609.37 595.396 615.425 596.526 621.578 596.432C626.889 596.354 632.201 596.313 637.515 596.309C644.423 596.298 653.814 595.894 661.996 596.198C667.158 596.389 671.051 596.481 673.673 596.473C700.08 596.391 726.663 596.505 753.421 596.813C753.575 596.814 753.723 596.877 753.831 596.986C753.939 597.096 754 597.244 754 597.398L753.988 607.594C753.988 608.452 753.548 608.884 752.668 608.888C729.529 608.997 706.632 608.942 683.976 608.724C675.171 608.638 666.368 608.65 657.566 608.759C655.194 608.788 652.903 608.097 650.635 608.367C649.303 608.519 647.906 608.741 646.574 608.747C637.383 608.774 628.19 608.776 618.995 608.753C617.651 608.747 615.121 609.04 613.151 608.729C610.469 608.302 608.756 609.034 606.278 608.999C588.98 608.733 571.681 608.669 554.383 608.806C552.635 608.817 550.888 608.179 549.141 608.396C542.735 609.192 536.897 607.477 530.96 608.577C528.525 609.026 526.078 609.108 523.619 608.823C518.067 608.185 512.445 608.542 506.853 608.238C504.801 608.127 502.657 608.952 500.798 608.776C495.784 608.291 491.261 608.408 485.709 608.361C483.807 608.345 481.727 608.482 479.467 608.77C477.883 608.969 476.078 608.232 474.529 608.209C456.114 607.893 442.708 608.999 427.683 608.302C416.129 607.764 404.546 608.689 393.021 607.998C388.422 607.723 383.741 608.197 379.124 608.144C352.533 607.828 325.907 608.413 299.323 607.746C298.898 607.738 297.729 607.891 295.816 608.203C295.13 608.101 294.497 608.232 293.917 608.595C291.585 608.624 289.464 607.887 287.284 607.881C277.81 607.875 268.512 607.547 258.899 608.039C255.607 608.207 252.361 608.246 249.163 608.156C240.124 607.914 231.085 607.76 222.046 607.694C221.294 607.686 219.909 607.809 217.891 608.062C215.033 608.425 212.245 607.705 209.674 607.758C205.454 607.844 201.249 607.643 197.056 607.155C196.279 607.061 195.537 606.312 194.403 606.295C186.379 606.131 177.385 602.174 170.77 597.743C165.218 594.027 159.397 588.343 154.809 583.175C152.168 580.202 150.532 576.684 148.761 572.213C146.388 566.207 144.512 561.291 143.595 555.251C143.185 552.541 143.302 549.556 143.226 546.682C143.223 546.535 143.164 546.395 143.063 546.29L142.163 545.347C142.098 545.278 142.05 545.195 142.024 545.105C141.997 545.014 141.993 544.919 142.011 544.826C143.028 539.845 143.291 534.396 144.436 529.913C146.996 519.893 151.081 510.481 157.603 502.825C160.221 499.746 163.581 497.159 167.082 494.613C177.722 486.895 189.759 483.024 203.193 483.001C209.45 482.989 214.645 483.081 218.779 483.276C220.104 483.339 220.807 484.064 220.889 485.453C221.048 488.212 221.146 491.193 221.181 494.397C221.183 494.507 221.153 494.616 221.095 494.71C221.037 494.804 220.953 494.881 220.854 494.929C213.94 498.272 208.219 503.1 204.981 510.171C204.475 511.275 203.631 513.628 202.451 517.229C199.488 526.272 198.354 539.383 203.164 548.046C209.954 560.278 220.115 567.399 233.646 569.409C236.062 569.768 239.948 569.953 245.305 569.965C262.423 570.006 279.575 569.743 296.687 570.211C302.765 570.375 308.562 570.297 314.079 569.977C315.579 569.891 316.974 570.035 318.263 570.41C319.245 570.699 320.087 570.823 320.788 570.784C327.491 570.451 335.474 569.07 341.844 570.129C344.497 570.568 345.935 570.662 348.84 570.31C355.923 569.438 364.508 569.801 372.035 570.474C374.162 570.667 376.447 570.117 378.341 570.129C384.828 570.176 391.313 570.115 397.796 569.947C400.396 569.883 402.933 570.644 405.668 570.416C411.781 569.906 418.25 570.468 424.778 570.164C429.74 569.936 434.69 570.638 439.71 570.609C442.188 570.597 445.215 569.807 447.909 569.983C450.348 570.146 452.479 570.242 454.302 570.269C457.248 570.31 461.38 570.79 464.962 570.351C466.127 570.207 468.636 570.164 472.489 570.223C474.523 570.252 477.381 571.188 479.321 570.861C482.693 570.281 486.62 569.567 489.992 570.345C491.582 570.708 493.179 570.749 494.785 570.468C495.618 570.324 496.409 570.32 497.157 570.457C499.709 570.913 502.236 570.845 504.737 570.252C505.544 570.061 506.329 570.033 507.092 570.17C509.921 570.665 512.757 570.796 515.601 570.562C517.962 570.369 519.949 570.919 522.205 570.861C530.928 570.615 539.652 570.517 548.375 570.568C553.962 570.603 560.665 569.959 565.235 570.585C565.824 570.667 566.498 570.621 567.257 570.445C568.839 570.074 570.427 570.049 572.02 570.369C574.562 570.884 577.181 570.386 579.401 570.568C583.36 570.9 588.522 570.956 594.888 570.738C601.952 570.492 617.577 570.531 641.764 570.855C645.539 570.907 652.178 570.422 657.391 570.708C660.329 570.868 662.495 570.944 663.89 570.937C693.566 570.788 723.184 570.831 752.744 571.065C753.573 571.073 753.99 571.495 753.994 572.33V582.66C753.994 582.815 753.933 582.964 753.823 583.074C753.713 583.184 753.565 583.246 753.41 583.246C736.77 583.265 720.163 583.327 703.589 583.433C701.672 583.444 698.861 583.046 696.517 583.064C670.308 583.263 654.792 583.286 649.969 583.134C646.632 583.029 643.611 582.233 640.887 582.613C634.728 583.46 628.063 583.54 620.895 582.853C617.961 582.572 614.554 583.404 611.731 583.339C589.237 582.812 566.743 583.21 545.658 583.076C538.417 583.029 528.271 583.433 519.499 582.842Z" fill="#414141"/>
<path d="M637.157 361.965C629.801 353.527 624.35 347.816 617 341.607C616.24 340.963 615.616 340.341 615.13 339.74C615.067 339.662 615.024 339.568 615.008 339.468C614.991 339.369 615.001 339.266 615.036 339.171C615.071 339.077 615.13 338.992 615.207 338.927C615.285 338.861 615.378 338.817 615.477 338.798C617.786 338.361 620.095 338.098 622.404 338.008C623.615 337.961 625.955 338.117 629.425 338.476C635.581 339.114 642.525 338.184 647.565 338.102C659.289 337.909 667.704 338.324 678.476 341.87C681.31 342.807 686.212 345.097 693.182 348.74C693.958 349.146 695.161 350.191 696.792 351.877C701.114 356.359 705.618 360.069 709.058 365.74C714.056 373.987 717.3 382.99 718.789 392.751C719.219 395.56 718.384 397.626 718.754 400.786C719.436 406.602 718.66 412.63 716.914 418.2C714.954 424.454 713.585 428.367 712.809 429.939C712.229 431.117 710.941 433.107 708.946 435.908C705.542 440.689 701.273 444.879 697.027 448.899C687.631 457.799 675.753 462.604 662.788 463.271C657.253 463.559 651.716 463.801 646.177 463.996C645.107 464.037 643.496 463.727 642.202 463.739C634.084 463.813 625.965 463.887 617.847 463.961C617.231 463.969 616.569 463.786 615.859 463.411C615.723 463.339 615.621 463.216 615.574 463.069C615.528 462.923 615.542 462.764 615.613 462.627C615.946 461.972 616.5 461.275 617.277 460.538C623.127 454.979 629.284 449.654 634.393 443.386C638.827 437.95 642.525 431.168 645.401 424.766C647.441 420.237 647.547 413.987 647.506 409.031C647.482 405.771 649.299 403.77 649.364 400.909C649.511 394.337 647.782 388.842 646.477 381.715C645.918 378.654 644.636 376.097 643.607 373.142C643.282 372.206 642.786 371.291 642.12 370.398C640.097 367.676 639.303 364.417 637.157 361.965ZM644.131 452.035C644.207 452.125 644.309 452.189 644.422 452.221C644.535 452.252 644.655 452.249 644.766 452.211C647.435 451.29 650.107 451.267 652.78 452.141C652.87 452.172 652.962 452.18 653.056 452.164C657.972 451.362 663.423 451.263 667.592 450.397C686.802 446.412 702.272 430.524 706.694 411.623C707.194 409.481 706.882 406.848 707.241 405.075C707.586 403.351 707.692 401.398 707.558 399.217C707.153 392.611 706.083 383.915 702.56 378.362C699.209 373.083 696.404 367.969 691.606 363.773C678.999 352.743 663.417 349.507 646.912 350.94C645.752 351.038 645.156 351.666 645.124 352.825C645.113 353.305 645.759 354.814 646.277 355.294C650.095 358.801 652.749 363.009 654.238 367.916C654.938 370.228 656.773 373.013 657.067 374.745C657.872 379.614 660.171 384.793 659.836 389.714C659.666 392.324 660.412 394.442 659.589 397.193C659.031 399.077 659.413 400.241 660.718 401.511C660.778 401.57 660.824 401.641 660.854 401.719C660.885 401.796 660.898 401.879 660.895 401.962C660.718 405.637 660.148 408.931 660.113 412.858C660.085 415.589 659.534 418.23 658.46 420.781C657.519 423.016 658.207 425.404 657.196 427.809C656.338 429.851 655.385 431.642 654.703 433.848C652.463 441.052 647.953 445.288 643.49 450.537C643.398 450.644 643.348 450.779 643.348 450.919C643.348 451.059 643.398 451.193 643.49 451.298L644.131 452.035Z" fill="#414141"/>
</svg>
